<svg xmlns="http://www.w3.org/2000/svg" width="16.881" height="16.208" viewBox="0 0 16.881 16.208"><defs><style>.a{fill:#fafcfc;stroke:#fafcfc;stroke-width:0.2px;}</style></defs><g transform="translate(-1.9 -3.76)"><path class="a" d="M48.026,5.8a1.943,1.943,0,1,0-1.943,1.943A1.943,1.943,0,0,0,48.026,5.8ZM44.7,5.8a1.388,1.388,0,1,1,1.388,1.388A1.388,1.388,0,0,1,44.7,5.8Z" transform="translate(-30.442)"/><path class="a" d="M26.331,20.916a.833.833,0,0,0,.741.139l2.454-.7a.841.841,0,1,0-.436-1.624l-1.424.35V17.663a1.666,1.666,0,0,0-.891-1.474l-1.943-1.022a2.5,2.5,0,0,0-1.16-.278H21.423a1.388,1.388,0,0,0-.9.308l-2.221,1.874a.833.833,0,1,0,1.069,1.274L21.451,16.6a.278.278,0,0,1,.178-.064h1.452l-2.032,3.19a.278.278,0,0,0-.039.105l-.6,3.648L18.2,25.688a1.111,1.111,0,0,0,1.571,1.571l2.64-2.64a.278.278,0,0,0,.078-.147l.45-2.554,1.307,2.262-.741,2.032a1.11,1.11,0,1,0,2.076.73l.949-2.809a.278.278,0,0,0-.017-.219l-1.524-2.887L26,19.287v.966A.833.833,0,0,0,26.331,20.916Zm-1.9-.033a.278.278,0,0,0,0,.278l1.546,2.912-.911,2.7a.555.555,0,1,1-1.03-.361l.786-2.154a.278.278,0,0,0-.019-.233l-1.76-3.042a.278.278,0,0,0-.242-.139h-.047a.278.278,0,0,0-.225.225l-.555,3.217-2.593,2.573a.556.556,0,0,1-.786-.786L20.871,23.8a.278.278,0,0,0,.078-.153l.6-3.681,2.265-3.562a.278.278,0,0,0-.233-.428H21.62a.833.833,0,0,0-.536.194l-2.076,1.743a.278.278,0,0,1-.355-.425l2.221-1.874a.833.833,0,0,1,.536-.194h2.249a1.943,1.943,0,0,1,.9.222L26.5,16.669a1.11,1.11,0,0,1,.594.983v1.793a.278.278,0,0,0,.344.278l1.757-.441a.287.287,0,0,1,.147.555l-2.454.7a.278.278,0,0,1-.353-.278v-2a.278.278,0,0,0-.519-.139Z" transform="translate(-11.47 -7.968)"/><path class="a" d="M2.278,23.555H5.331a.278.278,0,1,0,0-.555H2.278a.278.278,0,1,0,0,.555Z" transform="translate(0 -13.827)"/><path class="a" d="M5,17.278a.278.278,0,0,0,.278.278H8.331a.278.278,0,0,0,0-.555H5.278A.278.278,0,0,0,5,17.278Z" transform="translate(-2.167 -9.492)"/><path class="a" d="M11.331,11.555a.278.278,0,0,0,0-.555H8.278a.278.278,0,1,0,0,.555Z" transform="translate(-4.334 -5.158)"/></g></svg>