<svg xmlns="http://www.w3.org/2000/svg" width="9.177" height="16.4" viewBox="0 0 9.177 16.4"><defs><style>.a{fill:#fdfefe;stroke:#fcfdfd;stroke-width:0.4px;}</style></defs><g transform="translate(-25.274 -4.798)"><g transform="translate(25.474 7.91)"><path class="a" d="M26.54,34.468a.931.931,0,0,1-.252-.036,1.049,1.049,0,0,1-.664-.564.882.882,0,0,1,0-.753l.009-.017,1.7-2.812.738-2.693a1.44,1.44,0,0,0-.106-.54l-.006-.019a2.021,2.021,0,0,1-.049-.975l.356-2.042-.679.59L27.14,26.48c-.091.522-.4.841-.836.845h0a.834.834,0,0,1-.619-.275.785.785,0,0,1-.207-.6l0-.025.582-2.4a1.009,1.009,0,0,1,.421-.737l2.434-1.738a2.514,2.514,0,0,1,.9-.174,2.32,2.32,0,0,1,1.6.651l.03.042,1.151,2.3,1.311,1a.867.867,0,0,1,.033,1.244.611.611,0,0,1-.427.157,1.112,1.112,0,0,1-.736-.316L31.653,25.6a2.727,2.727,0,0,1-.553-.791l-.268,1.744a.427.427,0,0,0,.048.325l.012.017,1.823,2.921.005.036.5,3.316a.975.975,0,0,1-.673,1.241.993.993,0,0,1-.25.032.956.956,0,0,1-.93-.747l-.444-2.914-.99-1.648L29.2,31.181l-1.673,2.548A1.24,1.24,0,0,1,26.54,34.468Zm-.6-1.195a.532.532,0,0,0,.008.446.689.689,0,0,0,.437.371c.316.089.564-.078.841-.548L28.89,31l.965-2.7,1.413,2.352.452,2.967a.607.607,0,0,0,.742.441.63.63,0,0,0,.413-.832l-.5-3.291-1.78-2.852a.761.761,0,0,1-.112-.6l.437-2.847.249.517a5.212,5.212,0,0,0,.678,1.143l.016.011,1.167.892a.755.755,0,0,0,.49.218.261.261,0,0,0,.184-.061.513.513,0,0,0-.041-.732l-1.341-1.024-1.175-2.348a2,2,0,0,0-1.328-.523,2.152,2.152,0,0,0-.753.143l-2.389,1.712a.705.705,0,0,0-.266.508l-.581,2.4a.432.432,0,0,0,.118.315.476.476,0,0,0,.349.159c.345,0,.458-.353.494-.561l.467-2,1.521-1.321-.533,3.055a1.668,1.668,0,0,0,.046.786,1.681,1.681,0,0,1,.117.737l-.767,2.777Z" transform="translate(-25.474 -21.38)"/></g><g transform="translate(29.473 4.998)"><path class="a" d="M49.424,7.971a1.492,1.492,0,0,1-.284-2.95A1.406,1.406,0,0,1,49.393,5a1.492,1.492,0,0,1,.284,2.95A1.422,1.422,0,0,1,49.424,7.971Zm-.031-2.617a1.038,1.038,0,0,0-.189.017,1.137,1.137,0,0,0,.219,2.245,1.038,1.038,0,0,0,.189-.017,1.137,1.137,0,0,0-.219-2.245Z" transform="translate(-47.967 -4.998)"/></g></g></svg>