<svg xmlns="http://www.w3.org/2000/svg" width="16.459" height="16.6" viewBox="0 0 16.459 16.6"><defs><style>.a{fill:#fff;stroke:#fff;stroke-width:0.6px;}</style></defs><g transform="translate(-3.658 -3.247)"><g transform="translate(3.958 3.547)"><path class="a" d="M17.877,38.9a.345.345,0,0,0-.442.2,5.648,5.648,0,0,0-.2.653.344.344,0,1,0,.671.158,4.979,4.979,0,0,1,.171-.573A.344.344,0,0,0,17.877,38.9Z" transform="translate(-14.945 -32.794)"/><path class="a" d="M23.346,26.238a2.692,2.692,0,0,1,1.787-1,.344.344,0,0,0-.07-.685,3.367,3.367,0,0,0-2.244,1.245.344.344,0,1,0,.527.444Z" transform="translate(-19.504 -20.93)"/><path class="a" d="M14.257,3.547a4.834,4.834,0,0,0-3.651,1.776,4.18,4.18,0,0,0-1.089-.145c-3.066,0-5.56,3.226-5.56,7.191s2.494,7.178,5.56,7.178a4.8,4.8,0,0,0,3.652-1.776,4.182,4.182,0,0,0,1.087.144c3.066,0,5.56-3.226,5.56-7.191S17.322,3.547,14.257,3.547ZM9.517,18.858c-2.686,0-4.871-2.911-4.871-6.489s2.185-6.5,4.871-6.5a3.464,3.464,0,0,1,1.1.175l.008,0c2.181.67,3.764,3.33,3.764,6.324q0,.171-.007.341a7.469,7.469,0,0,1-1.6,4.454A4.175,4.175,0,0,1,9.517,18.858Zm4.74-1.631a3.554,3.554,0,0,1-.617-.053l.038-.057.075-.111q.051-.078.1-.157l.071-.116q.049-.081.1-.165c.022-.039.044-.078.065-.117.031-.058.061-.117.091-.176.019-.038.039-.077.058-.116.031-.065.061-.131.091-.2.015-.034.031-.068.046-.1q.058-.134.111-.271l.015-.036q.06-.156.114-.315c.011-.033.021-.066.032-.1.024-.074.048-.148.07-.223.012-.042.023-.084.035-.125.019-.067.037-.135.055-.2.012-.045.022-.091.033-.137.015-.066.03-.131.044-.2.01-.047.02-.1.029-.143q.019-.1.036-.2.012-.072.024-.145c.01-.067.02-.135.029-.2.006-.048.013-.1.018-.144.008-.07.015-.141.021-.212,0-.046.009-.091.012-.137.006-.078.01-.157.014-.235,0-.039,0-.077.006-.116,0-.117.007-.235.007-.353q0-.152,0-.3c0-.033,0-.065,0-.1,0-.067-.006-.134-.01-.2,0-.039-.006-.078-.009-.117,0-.06-.009-.119-.015-.179,0-.042-.009-.083-.013-.125s-.012-.112-.019-.168-.012-.084-.018-.127-.015-.109-.024-.163-.014-.085-.022-.127-.019-.106-.029-.158-.017-.084-.025-.126-.022-.1-.034-.156-.019-.083-.029-.124-.025-.1-.039-.153-.021-.081-.033-.122-.029-.1-.044-.151-.023-.079-.036-.118-.032-.1-.049-.151-.025-.076-.038-.113-.036-.1-.055-.151-.026-.072-.04-.108c-.02-.052-.041-.1-.062-.154-.013-.033-.027-.066-.04-.1-.024-.056-.049-.111-.074-.166-.012-.027-.024-.055-.037-.082q-.054-.114-.11-.226l-.007-.015q-.061-.119-.126-.235l-.039-.067c-.031-.054-.062-.108-.093-.16l-.052-.083c-.029-.046-.058-.092-.087-.137L13.7,7.62c-.029-.042-.057-.084-.086-.125l-.065-.089c-.029-.039-.058-.078-.088-.117L13.392,7.2,13.3,7.091l-.072-.084L13.137,6.9l-.075-.081-.1-.1-.077-.077-.1-.1-.079-.073-.1-.092-.08-.068c-.036-.03-.073-.059-.11-.088l-.08-.062c-.039-.029-.078-.057-.118-.085l-.078-.056c-.043-.03-.087-.058-.131-.086l-.07-.045c-.058-.036-.117-.07-.176-.1l-.03-.017q-.1-.058-.211-.11l-.06-.028c-.047-.022-.094-.045-.142-.066a4.089,4.089,0,0,1,2.942-1.331c2.686,0,4.871,2.911,4.871,6.489s-2.185,6.5-4.871,6.5Z" transform="translate(-3.958 -3.547)"/><path class="a" d="M25.816,47.776a1.916,1.916,0,0,0-.5.061,2.168,2.168,0,0,0,.5,4.276,2.017,2.017,0,0,0,.81-.166,2.163,2.163,0,0,0-.81-4.17Zm.543,3.536a1.346,1.346,0,0,1-.543.112,1.479,1.479,0,0,1-.333-2.92,1.242,1.242,0,0,1,.333-.039,1.474,1.474,0,0,1,.543,2.847Z" transform="translate(-20.257 -40.159)"/></g></g></svg>