<svg xmlns="http://www.w3.org/2000/svg" width="11.384" height="16" viewBox="0 0 11.384 16"><defs><style>.a{fill:#fff;}</style></defs><g transform="translate(933.9 -952)"><path class="a" d="M-922.516,957.692A5.7,5.7,0,0,0-928.208,952a5.7,5.7,0,0,0-5.692,5.692,5.691,5.691,0,0,0,4.974,5.643v1.876h-1.647v1.419h1.647V968h1.419v-1.37h1.647v-1.419h-1.647v-1.876A5.718,5.718,0,0,0-922.516,957.692Zm-9.965,0a4.277,4.277,0,0,1,4.273-4.273,4.277,4.277,0,0,1,4.273,4.273,4.277,4.277,0,0,1-4.273,4.273A4.3,4.3,0,0,1-932.481,957.692Z"/></g></svg>