<svg xmlns="http://www.w3.org/2000/svg" width="32.041" height="32" viewBox="0 0 32.041 32"><defs><style>.a{fill:#5dd8d0;}</style></defs><g transform="translate(-0.344 -0.383)"><path class="a" d="M46.512,34.164a4.427,4.427,0,0,0-2.269-.549l-.124,0A3.488,3.488,0,0,1,45.214,32.1a1.518,1.518,0,1,0-1.846-2.411,6.856,6.856,0,0,0-2.423,3.982,4.465,4.465,0,0,0-3.478.9,6.751,6.751,0,0,0-2.4,5.282A7.282,7.282,0,0,0,39.183,46.4a2.982,2.982,0,0,0,2.263.125,2.581,2.581,0,0,1,.84-.139h0a2.5,2.5,0,0,1,.814.135,3.016,3.016,0,0,0,.988.181c.066,0,.131,0,.2-.008l.065-.005c.072-.005.147-.012.217-.024a2.95,2.95,0,0,0,.821-.25,7.26,7.26,0,0,0,4.146-6.523A6.539,6.539,0,0,0,46.512,34.164ZM44.162,43.8l-.034,0-.033,0s0,0,0,0a5.383,5.383,0,0,0-2.213-.3,5.5,5.5,0,0,0-1.383.284.079.079,0,0,1-.062,0,4.366,4.366,0,0,1-2.471-3.925,3.939,3.939,0,0,1,1.274-3,1.566,1.566,0,0,1,1.426-.3l.087.026a2.852,2.852,0,0,1,.491.208,3.227,3.227,0,0,1,.279.163,1.452,1.452,0,0,0,1.577,0,3.175,3.175,0,0,1,.478-.259,1.652,1.652,0,0,1,1.547.01,3.7,3.7,0,0,1,1.516,3.174A4.373,4.373,0,0,1,44.162,43.8Z" transform="translate(-17.153 -14.32)"/><g transform="translate(5.517 6.308)"><path class="a" d="M12.773,41.955h-.687a1.518,1.518,0,0,1,0-3.036h.687a1.518,1.518,0,0,1,0,3.036Z" transform="translate(-10.567 -25.343)"/><g transform="translate(0.001 8.145)"><path class="a" d="M12.773,31.224h-.687a1.518,1.518,0,0,1,0-3.036h.687a1.518,1.518,0,1,1,0,3.036Z" transform="translate(-10.568 -28.188)"/><path class="a" d="M24.058,31.224h-.687a1.518,1.518,0,1,1,0-3.036h.687a1.518,1.518,0,0,1,0,3.036Z" transform="translate(-16.142 -28.188)"/><path class="a" d="M35.344,31.224h-.687a1.518,1.518,0,0,1,0-3.036h.687a1.518,1.518,0,0,1,0,3.036Z" transform="translate(-21.717 -28.188)"/></g><path class="a" d="M24.058,41.955h-.687a1.518,1.518,0,0,1,0-3.036h.687a1.518,1.518,0,0,1,0,3.036Z" transform="translate(-16.142 -25.343)"/><path class="a" d="M24.123,12.092H12.157a1.59,1.59,0,0,0-1.59,1.59v1.663a1.59,1.59,0,0,0,1.59,1.59H24.123a1.59,1.59,0,0,0,1.59-1.59V13.682A1.59,1.59,0,0,0,24.123,12.092Z" transform="translate(-10.567 -12.092)"/></g><g transform="translate(0.344 0.383)"><path class="a" d="M15.9,25.81H5.838A2.461,2.461,0,0,1,3.38,23.352V5.877A2.461,2.461,0,0,1,5.838,3.419h14.5A2.46,2.46,0,0,1,22.8,5.877V16.3a8.2,8.2,0,0,1,2.183-2.54,3.524,3.524,0,0,1,.853-.479v-7.4A5.5,5.5,0,0,0,20.343.383H5.838A5.5,5.5,0,0,0,.344,5.877V23.352a5.5,5.5,0,0,0,5.494,5.494H16.509A9.2,9.2,0,0,1,15.9,25.81Z" transform="translate(-0.344 -0.383)"/></g></g></svg>