<svg xmlns="http://www.w3.org/2000/svg" width="30.333" height="33" viewBox="0 0 30.333 33"><defs><style>.a{fill:#d890d5;stroke:#d890d5;}</style></defs><g transform="translate(-16.5 -13.5)"><path class="a" d="M31.667,14a7.985,7.985,0,0,0-6.639,3.556H19.667A2.681,2.681,0,0,0,17,20.222V43.333A2.681,2.681,0,0,0,19.667,46h24a2.681,2.681,0,0,0,2.667-2.667V20.222a2.681,2.681,0,0,0-2.667-2.667H41.889a.889.889,0,1,0,0,1.778h1.778a.868.868,0,0,1,.889.889V43.333a.868.868,0,0,1-.889.889h-24a.868.868,0,0,1-.889-.889V20.222a.868.868,0,0,1,.889-.889h4.472A7.991,7.991,0,1,0,31.667,14Zm0,1.778A6.222,6.222,0,1,1,25.444,22,6.209,6.209,0,0,1,31.667,15.778ZM28.9,18.431a.889.889,0,0,0-.528,1.528l1.583,1.583a1.82,1.82,0,1,0,1.25-1.25l-1.583-1.583a.889.889,0,0,0-.639-.278Q28.944,18.429,28.9,18.431Z" transform="translate(0 0)"/></g></svg>