<svg xmlns="http://www.w3.org/2000/svg" width="29.366" height="33" viewBox="0 0 29.366 33"><defs><style>.a{fill:#9586fb;stroke:#9586fb;}</style></defs><g transform="translate(-10.499 -5.5)"><g transform="translate(11 6)"><path class="a" d="M25.182,6a4.317,4.317,0,0,0-2.8.8,3.885,3.885,0,0,0-1.239,3.159,6.58,6.58,0,0,0,1.1,3.761A3.637,3.637,0,0,0,25.182,15.4a3.637,3.637,0,0,0,2.932-1.682,6.58,6.58,0,0,0,1.1-3.761A3.885,3.885,0,0,0,27.977,6.8,4.317,4.317,0,0,0,25.182,6Zm0,1.455a3.033,3.033,0,0,1,1.886.477,2.341,2.341,0,0,1,.693,2.023,5.18,5.18,0,0,1-.841,2.92,2.163,2.163,0,0,1-1.739,1.068,2.163,2.163,0,0,1-1.739-1.068,5.18,5.18,0,0,1-.841-2.92A2.341,2.341,0,0,1,23.3,7.932,3.033,3.033,0,0,1,25.182,7.455Zm-3.25,9.17a.727.727,0,0,0-.261.068c-3.32,1.51-4.367,4.217-5.318,6.364a9.015,9.015,0,0,1-1.614,2.7,4.9,4.9,0,0,1-3.1,1.409.727.727,0,1,0,.182,1.443,6.5,6.5,0,0,0,3.955-1.83,10.2,10.2,0,0,0,1.909-3.136c.976-2.2,1.747-4.332,4.591-5.625a.727.727,0,0,0-.341-1.4Zm6.409,0a.727.727,0,0,0-.25,1.4c2.844,1.293,3.615,3.422,4.591,5.625a10.2,10.2,0,0,0,1.909,3.136,6.5,6.5,0,0,0,3.955,1.83.727.727,0,1,0,.182-1.443,4.9,4.9,0,0,1-3.1-1.409,9.014,9.014,0,0,1-1.614-2.7c-.951-2.147-2-4.854-5.318-6.364A.727.727,0,0,0,28.341,16.625Zm-7.375,8.193a.727.727,0,0,0-.727.8,13.65,13.65,0,0,1,.023,2.841,2.658,2.658,0,0,1-.989,1.909c-1.584.3-3.27.265-5.1,1.3a3.911,3.911,0,0,0-1.886,1.977,2.655,2.655,0,0,0,.227,2.239A4.773,4.773,0,0,0,16.682,38c1.7,0,3.8-.89,5.92-1.727.016-.007.029-.017.045-.023h.011a.727.727,0,0,0,.182.023,21.247,21.247,0,0,1,5.42.784,25.646,25.646,0,0,0,5.42.943,4.773,4.773,0,0,0,4.17-2.125,2.656,2.656,0,0,0,.227-2.239,3.911,3.911,0,0,0-1.886-1.977c-1.833-1.03-3.518-.994-5.1-1.3a2.658,2.658,0,0,1-.989-1.909,13.645,13.645,0,0,1,.023-2.841A.729.729,0,0,0,28.67,25.5a14.343,14.343,0,0,0-.011,3.148,4.127,4.127,0,0,0,1.7,3.023.727.727,0,0,0,.25.1c1.86.389,3.34.291,4.864,1.148a2.543,2.543,0,0,1,1.239,1.216,1.093,1.093,0,0,1-.125,1,3.535,3.535,0,0,1-2.909,1.409,26.086,26.086,0,0,1-5.08-.909c-.868-.2-1.763-.4-2.648-.557a8.745,8.745,0,0,1,2.068-.455A.727.727,0,1,0,28,33.17c-1.708.029-3.815.914-5.932,1.75a20,20,0,0,1-5.386,1.625,3.535,3.535,0,0,1-2.909-1.409,1.093,1.093,0,0,1-.125-1,2.543,2.543,0,0,1,1.239-1.216c1.523-.856,3-.759,4.864-1.148a.727.727,0,0,0,.25-.1,4.127,4.127,0,0,0,1.7-3.023,14.346,14.346,0,0,0-.011-3.148A.727.727,0,0,0,20.966,24.818Z" transform="translate(-11 -6)"/></g></g></svg>