<svg xmlns="http://www.w3.org/2000/svg" width="35.431" height="32.622" viewBox="0 0 35.431 32.622"><defs><style>.a{fill:#ff9b91;stroke:#ff9b91;stroke-width:0.6px;}</style></defs><g transform="translate(0.335 -0.95)"><g transform="translate(-0.031 1.272)"><path class="a" d="M27.968,16.568c-2.949-.619-6.174.62-9.378,3.6a9.253,9.253,0,0,0-4.717-1.255,11.666,11.666,0,0,0-3.91.71,19.2,19.2,0,0,0-.6-5.51,25.473,25.473,0,0,1-.587-3.651,4.779,4.779,0,1,0-6.62-4.488C2.009,7.168.3,20.918-.007,25.742a4.671,4.671,0,0,0,1.172,3.6,6.293,6.293,0,0,0,4.629,1.7c7.657.835,20.487,2.229,20.894,2.229a8.1,8.1,0,0,0,8.1-8.093A8.333,8.333,0,0,0,27.968,16.568ZM26.715,31.1c-.777-.053-12.791-1.356-20.741-2.223H5.855a4.287,4.287,0,0,1-3.107-1.017,2.5,2.5,0,0,1-.588-1.971c.308-4.874,2.141-19.552,2.16-19.7a1.12,1.12,0,0,0,.008-.135A2.607,2.607,0,1,1,7.454,8.6a1.086,1.086,0,0,0-.869,1.1,23.353,23.353,0,0,0,.655,4.848,13.167,13.167,0,0,1,.248,6.626A1.086,1.086,0,0,0,9.108,22.4a10.05,10.05,0,0,1,4.764-1.315A7.158,7.158,0,0,1,18.1,22.431a1.086,1.086,0,0,0,1.4-.117c2.84-2.843,5.648-4.108,8.031-3.619a6.12,6.12,0,0,1,5.087,6.485,5.928,5.928,0,0,1-5.9,5.92Z" transform="translate(0.031 -1.272)"/></g></g></svg>