<svg xmlns="http://www.w3.org/2000/svg" width="33" height="33" viewBox="0 0 33 33"><defs><style>.a{fill:#6bd295;stroke:#6bd295;}</style></defs><g transform="translate(0.5 0.5)"><g transform="translate(0)"><path class="a" d="M24.333,11.8a5.939,5.939,0,0,0-2.6.6c-.067,0-.067,0-.133.067A3.976,3.976,0,0,1,24.4,9.6a.675.675,0,0,0-.467-1.267,5.5,5.5,0,0,0-3.8,4.2c-.067,0-.2-.067-.267-.067a6.159,6.159,0,0,0-2.6-.6,6.069,6.069,0,0,0-2.667.667v-3.2a2.675,2.675,0,0,0-2.667-2.667h-.267v-2.8A.63.63,0,0,0,11,3.2H8V1.333H9.867a.63.63,0,0,0,.667-.667A.63.63,0,0,0,9.867,0H4.8a.63.63,0,0,0-.667.667.63.63,0,0,0,.667.667H6.667V3.2H3.6a.63.63,0,0,0-.667.667V6.6H2.667A2.675,2.675,0,0,0,0,9.267V29.333A2.675,2.675,0,0,0,2.667,32h9.267A2.692,2.692,0,0,0,14,31a6.463,6.463,0,0,0,3.267,1,5.689,5.689,0,0,0,2.067-.4,4.233,4.233,0,0,1,2.867,0,5.433,5.433,0,0,0,2.067.4C28.533,32,32,27.467,32,21.867S28.533,11.8,24.333,11.8ZM4.267,4.533H10.4V6.6H4.267ZM1.333,9.2A1.337,1.337,0,0,1,2.667,7.867h9.267A1.337,1.337,0,0,1,13.267,9.2v4.067c-.067.067-1,1-1.267,1.333,0,.067-.067.067-.067.133H1.333Zm0,6.867h9.733c-.067.067-.067.2-.133.267a12.27,12.27,0,0,0-1.267,6.2H1.333Zm10.6,14.6H2.667a1.337,1.337,0,0,1-1.333-1.333V23.867H9.8V24a10.506,10.506,0,0,0,3.133,6.2A1.3,1.3,0,0,1,11.933,30.667Zm12.4,0a4.482,4.482,0,0,1-1.6-.267,6.194,6.194,0,0,0-1.933-.333,6.545,6.545,0,0,0-1.933.333,6.692,6.692,0,0,1-1.6.267,5.781,5.781,0,0,1-4.8-3.067C8.2,18.733,14.2,14.2,14.267,14.133a4.784,4.784,0,0,1,3-1,4.66,4.66,0,0,1,2.067.467,3.248,3.248,0,0,0,2.933,0,4.467,4.467,0,0,1,2.067-.467c3.467,0,6.333,3.933,6.333,8.8S27.8,30.667,24.333,30.667Z" transform="translate(0)"/><path class="a" d="M23.3,21c-3,0-5.4,3.533-5.4,7.867a.667.667,0,0,0,1.333,0c0-3.467,1.933-6.533,4.067-6.533a.63.63,0,0,0,.667-.667A.668.668,0,0,0,23.3,21Z" transform="translate(-5.967 -7)"/></g></g></svg>