<svg xmlns="http://www.w3.org/2000/svg" width="24.683" height="33.6" viewBox="0 0 24.683 33.6"><defs><style>.a{fill:#fbab4d;stroke:#fbab4d;stroke-width:1.6px;}</style></defs><g transform="translate(-6.38 -2.2)"><g transform="translate(7.18 3)"><path class="a" d="M18.18,19a8,8,0,1,0-8-8A8,8,0,0,0,18.18,19Zm0-14.933A6.933,6.933,0,1,1,11.247,11,6.947,6.947,0,0,1,18.18,4.067Z" transform="translate(-6.98 -3)"/><path class="a" d="M20.713,29.067h5.333a.533.533,0,0,0,0-1.067H20.713a.533.533,0,0,0,0,1.067Z" transform="translate(-6.313 -1.333)"/><path class="a" d="M7.18,33.445a.528.528,0,0,0,.533.533H29.729a.528.528,0,0,0,.533-.533V29.84a11.453,11.453,0,0,0-6.485-10.357A11.527,11.527,0,0,0,7.18,29.84ZM29.2,29.84v3.072H18.913V26.171l4.747-5.536A10.4,10.4,0,0,1,29.2,29.84Zm-6.539-9.675L18.38,25.157l-4.107-4.789A10.557,10.557,0,0,1,22.657,20.165ZM8.247,29.84a10.488,10.488,0,0,1,5.067-8.949l4.533,5.291v6.731h-9.6Z" transform="translate(-7.18 -1.979)"/></g></g></svg>