<svg xmlns="http://www.w3.org/2000/svg" width="16.43" height="16.6" viewBox="0 0 16.43 16.6"><defs><style>.a{fill:#fff;stroke:#fff;stroke-width:0.6px;}</style></defs><g transform="translate(-5.699 -5.422)"><path class="a" d="M7.28,20.447a1.736,1.736,0,1,0,3.259-1.172l2.931-2.931c2.308.4,5.8-1.3,7.169-2.662a4.612,4.612,0,0,0,.764-1,.33.33,0,0,0-.1-.436A1.588,1.588,0,0,1,21.6,9.433a.33.33,0,0,0,.2-.4,4.583,4.583,0,0,0-1.167-1.946,4.668,4.668,0,0,0-6.594,0c-1.358,1.362-3.063,4.854-2.664,7.165L8.443,17.186A1.736,1.736,0,0,0,6.507,20,1.723,1.723,0,0,0,7.28,20.447Zm7.228-12.9a4.008,4.008,0,0,1,5.662,0,3.943,3.943,0,0,1,.911,1.4,2.245,2.245,0,0,0-.4,3.646,4.027,4.027,0,0,1-.507.618c-1.3,1.293-4.628,2.868-6.654,2.463L12.043,14.2C11.643,12.174,13.219,8.844,14.508,7.551ZM6.973,18.009a1.08,1.08,0,0,1,.764-.315,1.068,1.068,0,0,1,.586.174.329.329,0,0,0,.413-.043l3-3L12.9,15.987l-3,3a.33.33,0,0,0-.043.413,1.079,1.079,0,0,1-1.663,1.357,1.043,1.043,0,0,1-.3-.623A.33.33,0,0,0,7.6,19.84a1.078,1.078,0,0,1-.63-1.83Z"/><path class="a" d="M33.608,11.287a2.641,2.641,0,0,1,3.731,0,.33.33,0,0,0,.466-.466,3.3,3.3,0,0,0-4.663,0,.329.329,0,1,0,.466.466Z" transform="translate(-18.134 -2.772)"/></g></svg>