<svg xmlns="http://www.w3.org/2000/svg" width="13.672" height="19" viewBox="0 0 13.672 19"><defs><style>.a{fill:#fff;}</style></defs><g transform="translate(-15.8 -4)"><path class="a" d="M21.591,23V20.109H18.907V18.663h2.664l.021-1.776-.351-.062a5.493,5.493,0,1,1,4.5-9.665l.289.207,2.148-2.127H25.722V4h4.75V8.75H29.233v-2.5l-2.272,2.21.1.268V8.75a5.486,5.486,0,0,1-3.759,8.075l-.33.062-.021,1.776h2.767v1.446H22.954L22.975,23Zm.7-15.675a4.12,4.12,0,1,0,4.11,4.13A4.107,4.107,0,0,0,22.293,7.325Z" transform="translate(-1)"/></g></svg>