<svg xmlns="http://www.w3.org/2000/svg" width="16.725" height="16.6" viewBox="0 0 16.725 16.6"><defs><style>.a{fill:#fff;stroke:#fff;stroke-width:0.6px;}</style></defs><g transform="translate(-9.813 -10.097)"><path class="a" d="M25.322,13.047a1.112,1.112,0,0,0-.02-1.477h0a1.122,1.122,0,0,0-1.5-.142A1.132,1.132,0,0,0,22.733,10.4,1.11,1.11,0,0,0,21.58,11.47l-.061,1.4a3.306,3.306,0,0,0-2.528-.081c-2.387.809-4.612,3.9-6.068,6.331a28.545,28.545,0,0,0-2.791,5.926,1.246,1.246,0,0,0,.283,1.072,1.175,1.175,0,0,0,.829.283.985.985,0,0,0,.243-.02,28.06,28.06,0,0,0,5.926-2.791c2.447-1.456,5.522-3.681,6.331-6.068a3.288,3.288,0,0,0,0-2.326l1.335.04h.04a1.039,1.039,0,0,0,.748-.3,1.15,1.15,0,0,0,.364-.769A1.06,1.06,0,0,0,25.322,13.047Zm-.546-1.011a.44.44,0,0,1-.02.607l-1.618,1.5c-.2-.243-.4-.445-.587-.627l1.638-1.5A.4.4,0,0,1,24.776,12.036Zm-2.063-.951a.416.416,0,0,1,.4.445l-.02.526-.89.809.061-1.375A.442.442,0,0,1,22.713,11.085Zm.384,6.23a8.788,8.788,0,0,1-2.832,3.5l-1.638-1.638-.485.485,1.578,1.578c-.587.445-1.193.85-1.78,1.234l-.607-.607-.485.485.506.506a2.994,2.994,0,0,0-.263.162,28.275,28.275,0,0,1-5.663,2.69c-.324.04-.485-.02-.526-.081a.623.623,0,0,1-.081-.485,14.859,14.859,0,0,1,1.133-2.771l.243.243.485-.485-.4-.4c.364-.708.769-1.456,1.234-2.245.222-.364.445-.748.688-1.133l.91.91.485-.485L14.582,17.76a17.38,17.38,0,0,1,2-2.488l2,2,.485-.485-2-2a6.291,6.291,0,0,1,2.1-1.355,2.872,2.872,0,0,1,.971-.162,2.931,2.931,0,0,1,2.1.991A2.707,2.707,0,0,1,23.1,17.315Zm2.326-2.852a.334.334,0,0,1-.3.1L23.745,14.5l.87-.809.526.02a.416.416,0,0,1,.4.445A.412.412,0,0,1,25.424,14.463Z"/></g></svg>