<svg xmlns="http://www.w3.org/2000/svg" width="16.237" height="16.211" viewBox="0 0 16.237 16.211"><defs><style>.a{fill:#fff;stroke:#fff;stroke-width:0.2px;}</style></defs><g transform="translate(-2.387 -2.414)"><path class="a" d="M18.494,3.431a.946.946,0,0,0-1.619-.624,9.523,9.523,0,0,1-3,1.906c-1.5.691-2.9,1.349-3.052,3.036a2.857,2.857,0,0,0,1.231,2.479,24.576,24.576,0,0,0-2.918,6A51.236,51.236,0,0,0,3.418,3.566a.514.514,0,0,0-.708-.135.494.494,0,0,0-.135.691c3.98,5.9,6.021,13.947,6.037,14.014a.506.506,0,0,0,.489.388h0a.506.506,0,0,0,.489-.371A24.437,24.437,0,0,1,12.9,10.767a4.321,4.321,0,0,0,1.939.472,3.112,3.112,0,0,0,1.72-.489C18.326,9.553,18.6,5.59,18.494,3.431ZM15.982,9.924a2.679,2.679,0,0,1-2.479.017A13.68,13.68,0,0,1,15.24,7.985a.506.506,0,0,0,.067-.708.492.492,0,0,0-.708-.067,13.944,13.944,0,0,0-1.973,2.175,1.92,1.92,0,0,1-.809-1.568c.1-1.046.961-1.5,2.479-2.209a11.147,11.147,0,0,0,3.2-1.99C17.6,6.2,17.128,9.148,15.982,9.924Z"/></g></svg>